<?xml version="1.0" encoding="utf-8"?>
<!-- Generator: Adobe Illustrator 21.0.0, SVG Export Plug-In . SVG Version: 6.00 Build 0)  -->
<svg version="1.1" id="Layer_1" xmlns="http://www.w3.org/2000/svg" xmlns:xlink="http://www.w3.org/1999/xlink" x="0px" y="0px"
	 viewBox="0 0 89.3 56.7" style="enable-background:new 0 0 89.3 56.7;" xml:space="preserve">
<style type="text/css">
	.st0{fill:#FF5000;}
</style>
<g>
	<g>
		<g>
			<path d="M10.6,35.2H3L0,56.5c0,0,8.7,0,8.7,0c4.1,0,7.6-3,8.2-7l0.8-5.9c0.1-0.4,0.1-0.7,0.1-1.1C17.9,38.5,14.6,35.2,10.6,35.2z
				 M13.6,43c0,0-0.9,6.1-0.9,6.1c-0.3,1.9-1.9,3.3-3.9,3.3c0,0-2,0-4,0l1.9-13.2h3.7c1.8,0,3.3,1.5,3.3,3.3
				C13.6,42.7,13.6,42.9,13.6,43z"/>
			<path d="M35.4,42.2c0-4-3.2-7.2-7.2-7.2c0,0-0.3,0-0.4,0c-4.1,0-7.6,3-8.2,7l-0.9,6.3c-0.1,0.4-0.1,0.7-0.1,1.1
				c0,4,3.2,7.2,7.2,7.2c0,0,0.3,0,0.4,0c4.1,0,7.6-3,8.2-7l0.9-6.3C35.4,43,35.4,42.6,35.4,42.2z M31.2,42.8c0,0-0.9,6.5-0.9,6.5
				c-0.3,1.9-1.9,3.3-3.9,3.3c-0.1,0-0.2,0-0.2,0c-1.8,0-3.3-1.5-3.3-3.3c0-0.2,0-0.3,0-0.5c0,0,0.9-6.5,0.9-6.5
				c0.3-1.9,1.9-3.3,3.9-3.3c0.1,0,0.2,0,0.2,0c1.8,0,3.3,1.5,3.3,3.3C31.2,42.5,31.2,42.7,31.2,42.8z"/>
			<polygon points="85.1,35.2 83.2,48.5 77.6,35.2 73.4,35.2 70.4,56.5 74.7,56.5 76.5,43.2 82.1,56.5 86.3,56.5 89.3,35.2 			"/>
			<polygon points="49.8,35.2 48.5,44.1 41.1,44.1 42.3,35.2 38.1,35.2 35.1,56.5 39.4,56.5 40.5,48 48,48 46.8,56.5 51,56.5 
				54,35.2 			"/>
			<path d="M67.4,35.2c0,0-2,14.1-2,14.1c-0.3,1.9-1.9,3.3-3.9,3.3c-0.1,0-0.2,0-0.2,0c-1.8,0-3.3-1.5-3.3-3.3c0-0.2,0-0.3,0-0.5
				c0,0,1.9-13.7,1.9-13.7h-4.3l-1.8,13.2c-0.1,0.4-0.1,0.7-0.1,1.1c0,4,3.2,7.2,7.2,7.2c0,0,0.3,0,0.4,0c4.1,0,7.6-3,8.2-7l2-14.5
				H67.4z"/>
		</g>
		<g>
			<polygon class="st0" points="89.3,0 39.1,14.8 67.3,21.3 58.5,15.2 			"/>
			<polygon class="st0" points="30.8,19 0,34.3 50.2,19.5 22,13 			"/>
		</g>
	</g>
</g>
</svg>
